<svg width="217" height="77" viewBox="0 0 217 77" fill="none" xmlns="http://www.w3.org/2000/svg">
<circle cx="3.81055" cy="73.4233" r="3" fill="#222222"/>
<circle cx="38.8105" cy="73.4233" r="3" fill="#222222"/>
<circle cx="73.8105" cy="3.42334" r="3" fill="#222222"/>
<circle cx="73.8105" cy="38.4233" r="3" fill="#222222"/>
<circle cx="38.8105" cy="3.42334" r="3" fill="#222222"/>
<circle cx="3.81055" cy="3.42334" r="3" fill="#222222"/>
<circle cx="38.8105" cy="38.4233" r="3" fill="#222222"/>
<circle cx="3.81055" cy="38.4233" r="3" fill="#222222"/>
<circle cx="73.8105" cy="73.4233" r="3" fill="#222222"/>
<circle cx="108.811" cy="3.42334" r="3" fill="#222222"/>
<circle cx="108.811" cy="38.4233" r="3" fill="#222222"/>
<circle cx="108.811" cy="73.4233" r="3" fill="#222222"/>
<circle cx="143.811" cy="3.42334" r="3" fill="#222222"/>
<circle cx="143.811" cy="38.4233" r="3" fill="#222222"/>
<circle cx="143.811" cy="73.4233" r="3" fill="#222222"/>
<circle cx="178.811" cy="3.42334" r="3" fill="#222222"/>
<circle cx="178.811" cy="38.4233" r="3" fill="#222222"/>
<circle cx="178.811" cy="73.4233" r="3" fill="#222222"/>
<circle cx="213.811" cy="3.42334" r="3" fill="#222222"/>
<circle cx="213.811" cy="38.4233" r="3" fill="#222222"/>
<circle cx="213.811" cy="73.4233" r="3" fill="#222222"/>
</svg>
