<svg width="27" height="21" viewBox="0 0 27 21" fill="none" xmlns="http://www.w3.org/2000/svg">
<path d="M26.5747 2.44044C25.6066 2.85485 24.5417 3.13113 23.4283 3.26926C24.5417 2.62462 25.413 1.61161 25.8002 0.414414C24.7353 1.01301 23.5736 1.42742 22.3634 1.65765C21.3469 0.644643 19.9431 0 18.3942 0C15.393 0 12.9727 2.3023 12.9727 5.20319C12.9727 5.61761 13.0211 5.98597 13.1179 6.40039C8.5678 6.17016 4.55013 4.09809 1.88782 0.966965C1.40376 1.74975 1.16174 2.62462 1.16174 3.59158C1.16174 5.38738 2.12985 6.99899 3.58202 7.91991C2.71072 7.91991 1.83942 7.64363 1.11333 7.27526V7.32131C1.11333 9.85384 3.00115 11.9259 5.46984 12.3864C5.03419 12.5245 4.55013 12.5705 4.01767 12.5705C3.67883 12.5705 3.33999 12.5245 3.00115 12.4785C3.67883 14.5505 5.71187 16.024 8.08375 16.07C6.24433 17.4514 3.87245 18.2802 1.30695 18.2802C0.871302 18.2802 0.435651 18.2342 0 18.1882C2.42028 19.6616 5.27622 20.5365 8.32578 20.5365C18.3458 20.5365 23.8156 12.6166 23.8156 5.80179C23.8156 5.57156 23.8156 5.34133 23.8156 5.1111C24.9289 4.37437 25.8486 3.45345 26.5747 2.44044Z" fill="#07FEDE"/>
</svg>
