<?xml version="1.0" encoding="UTF-8"?><svg id="Layer_1" xmlns="http://www.w3.org/2000/svg" viewBox="0 0 1792 256"><defs><style>.cls-1{fill:#07fede;}</style></defs><path class="cls-1" d="m410.22,178.97v-30.09h-29.95v-12.33h29.95v-30.09h12.33v30.09h30.09v12.33h-30.09v30.09h-12.33Z"/><path d="m848.13,248.16v-43.74h43.07v43.74h-43.07Z"/><path d="m916.43,129.39c0-37.9,8.91-67.63,26.75-89.16,17.82-21.53,40.42-32.3,67.79-32.3s49.57,10.77,67.29,32.3c17.72,21.53,26.58,51.26,26.58,89.16s-8.53,69.37-25.57,91c-17.04,21.65-39.82,32.47-68.3,32.47s-51.93-10.77-68.97-32.3c-17.05-21.53-25.57-51.92-25.57-91.18Zm153.08,0c0-27.81-5.34-50.02-15.98-66.62-10.65-16.6-24.85-24.9-42.57-24.9s-32.3,8.3-43.07,24.9c-10.77,16.6-16.15,38.81-16.15,66.62,0,30.06,5.21,53.16,15.64,69.31,10.43,16.15,24.95,24.22,43.57,24.22s32.75-8.07,43.07-24.22,15.48-39.25,15.48-69.31Z"/><path d="m1152.61,245.8v-34.32c13.9,5.61,28.71,8.41,44.41,8.41,30.5,0,52.71-11.32,66.62-33.98,4.71-8.07,8.53-17.88,11.44-29.43,2.91-11.54,4.26-22.48,4.04-32.8h-13.79c-3.36,10.55-9.98,19.57-19.85,27.08-9.87,7.52-21.65,11.28-35.33,11.28-20.64,0-37.51-6.9-50.63-20.7-13.12-13.79-19.68-30.9-19.68-51.31,0-23.32,7.23-42.83,21.71-58.54,14.46-15.7,33.68-23.55,57.69-23.55s43.96,8.07,59.89,24.22c19.51,19.97,29.27,49.91,29.27,89.83s-9.37,72-28.09,95.55c-18.74,23.55-46.05,35.33-81.93,35.33-18.39,0-33.64-2.36-45.76-7.07h0Zm114.39-160.15c0-14.35-4.37-26.02-13.12-34.99-8.75-8.97-19.74-13.46-32.97-13.46s-23.95,4.49-32.8,13.46c-8.86,8.97-13.29,20.64-13.29,34.99s4.43,25.63,13.29,34.49c8.85,8.86,19.79,13.29,32.8,13.29s24.22-4.43,32.97-13.29c8.75-8.85,13.12-20.35,13.12-34.49Z"/><path d="m1347.07,248.16v-43.74h43.07v43.74h-43.07Z"/><path d="m1432.87,248.16v-36.67c26.69-16.82,47.78-31.06,63.25-42.73,37.68-28.71,56.52-56.74,56.52-84.11,0-14.35-4.1-25.74-12.28-34.15-8.19-8.41-18.34-12.61-30.44-12.61-13.24,0-24.06,4.71-32.47,14.13-8.41,9.42-12.61,22.1-12.61,38.02l-33.98-4.37c.44-23.1,7.79-41.83,22.03-56.19,14.24-14.35,33.36-21.53,57.36-21.53s42.67,6.79,56.69,20.36c14.02,13.57,21.03,31.13,21.03,52.65,0,24.68-8.19,46.55-24.56,65.61-17.27,20.19-51.59,44.53-102.95,73.01l8.41,12.79c15.02-10.09,31.73-15.14,50.13-15.14h71.66v30.95h-157.79Z"/><path d="m1624.31,180.87l35.33-7.4c.67,15.48,5.38,27.7,14.13,36.67,8.75,8.97,20.29,13.46,34.65,13.46,13.01,0,23.71-3.64,32.13-10.94,8.41-7.29,12.61-17.1,12.61-29.43s-4.26-21.87-12.79-29.27c-8.53-7.4-19.51-11.1-32.97-11.1h-16.49v-28.6h16.49c11.66,0,21.58-3.59,29.77-10.77,8.18-7.17,12.29-16.49,12.29-27.93s-3.99-20.41-11.94-27.59c-7.97-7.17-17.67-10.77-29.11-10.77-12.33,0-22.43,3.87-30.28,11.61-7.85,7.74-12.33,18-13.46,30.79l-34.32-6.39c1.35-18.84,9.08-34.42,23.21-46.77,14.14-12.34,32.41-18.51,54.85-18.51s41.09,5.83,54.68,17.5c13.57,11.67,20.35,26.47,20.35,44.41,0,15.26-5,27.25-14.98,36s-22.71,13.69-38.18,14.8v13.79c16.37.67,30.05,5.67,41.05,14.98,10.99,9.31,16.49,22.37,16.49,39.19,0,18.4-7.29,33.7-21.87,45.93-14.58,12.23-33.76,18.34-57.53,18.34s-43.85-6.51-58.88-19.51-23.44-30.5-25.23-52.49h0Z"/><g><path d="m3.94,130.14c0-37.63,8.85-67.13,26.55-88.51C48.19,20.27,70.62,9.58,97.79,9.58s49.2,10.69,66.8,32.06c17.59,21.37,26.38,50.88,26.38,88.51s-8.46,68.86-25.38,90.34c-16.92,21.49-39.52,32.23-67.8,32.23s-51.55-10.69-68.47-32.06C12.4,199.28,3.94,169.11,3.94,130.14Zm151.96,0c0-27.61-5.29-49.65-15.86-66.13-10.58-16.47-24.66-24.71-42.25-24.71s-32.06,8.24-42.75,24.71c-10.69,16.48-16.03,38.52-16.03,66.13,0,29.84,5.18,52.77,15.53,68.8,10.35,16.03,24.77,24.05,43.25,24.05s32.51-8.02,42.75-24.05c10.24-16.03,15.36-38.96,15.36-68.8Z"/><path d="m217.65,187.59c0-15.81,5.45-28.44,16.37-37.91,10.91-9.46,25.05-14.75,42.42-15.86v-13.69c-16.03-1.11-28.78-5.95-38.24-14.53-9.47-8.57-14.19-20.21-14.19-34.9,0-17.81,7.01-32.45,21.04-43.92,14.03-11.46,32.4-17.2,55.11-17.2s40.8,5.79,54.94,17.37c14.14,11.58,21.21,26.17,21.21,43.75,0,14.7-4.73,26.33-14.19,34.9-9.47,8.57-22.21,13.42-38.24,14.53v13.69c17.59,1.12,31.73,6.35,42.42,15.7,10.69,9.35,16.03,22.04,16.03,38.07,0,18.93-7.18,34.52-21.54,46.76-14.36,12.25-34.57,18.37-60.62,18.37s-46.31-6.12-60.78-18.37c-14.48-12.24-21.71-27.83-21.71-46.76Zm117.06,25.05c8.57-7.35,12.86-17.14,12.86-29.39s-4.34-22.04-13.02-29.39c-8.68-7.35-20.26-11.02-34.73-11.02-12.92,0-24.05,3.9-33.4,11.69-9.35,7.8-14.03,17.37-14.03,28.72,0,12.25,4.34,22.04,13.03,29.39,8.68,7.35,20.15,11.02,34.4,11.02s26.33-3.67,34.9-11.02Zm8.18-138.27c0-10.46-4.01-19.09-12.02-25.88-8.02-6.79-18.26-10.19-30.73-10.19s-22.71,3.4-30.73,10.19c-8.02,6.79-12.02,15.42-12.02,25.88,0,11.58,3.95,20.71,11.86,27.39,7.9,6.68,18.2,10.02,30.89,10.02s22.43-3.39,30.56-10.19c8.13-6.79,12.19-15.86,12.19-27.22Z"/></g><g><path d="m475.38,130.14c0-37.63,8.85-67.13,26.55-88.51,17.7-21.37,40.13-32.06,67.3-32.06s49.21,10.69,66.8,32.06c17.59,21.37,26.38,50.88,26.38,88.51s-8.46,68.86-25.38,90.34c-16.92,21.49-39.52,32.23-67.8,32.23s-51.55-10.69-68.47-32.06c-16.92-21.37-25.38-51.54-25.38-90.51Zm151.96,0c0-27.61-5.29-49.65-15.86-66.13-10.58-16.47-24.66-24.71-42.25-24.71s-32.06,8.24-42.75,24.71c-10.69,16.48-16.03,38.52-16.03,66.13,0,29.84,5.18,52.77,15.53,68.8,10.35,16.03,24.77,24.05,43.25,24.05s32.51-8.02,42.75-24.05c10.24-16.03,15.36-38.96,15.36-68.8Z"/><path d="m709.84,245.7v-34.07c13.8,5.57,28.5,8.35,44.09,8.35,30.28,0,52.32-11.24,66.13-33.73,4.68-8.02,8.46-17.75,11.36-29.22,2.89-11.46,4.23-22.32,4.01-32.56h-13.69c-3.34,10.47-9.91,19.43-19.71,26.89-9.8,7.46-21.49,11.19-35.07,11.19-20.49,0-37.24-6.85-50.26-20.54-13.02-13.69-19.54-30.67-19.54-50.93,0-23.15,7.18-42.53,21.54-58.11,14.36-15.58,33.45-23.38,57.28-23.38s43.64,8.02,59.45,24.05c19.37,19.82,29.06,49.54,29.06,89.17s-9.3,71.47-27.89,94.85c-18.59,23.38-45.7,35.07-81.32,35.07-18.26,0-33.4-2.34-45.42-7.01Zm113.55-158.98c0-14.25-4.34-25.83-13.02-34.73-8.68-8.9-19.6-13.36-32.73-13.36s-23.77,4.46-32.56,13.36c-8.8,8.91-13.19,20.49-13.19,34.73s4.39,25.44,13.19,34.23c8.79,8.8,19.65,13.19,32.56,13.19s24.05-4.39,32.73-13.19c8.68-8.79,13.02-20.21,13.02-34.23Z"/></g></svg>