<svg width="211" height="19" viewBox="0 0 211 19" fill="none" xmlns="http://www.w3.org/2000/svg">
<path d="M0.104858 18.4749V0.974892H6.70486C9.28819 0.941559 11.4799 1.72489 13.2799 3.32489C15.0965 4.92489 15.9882 7.01656 15.9549 9.59989C15.9882 12.2499 15.0965 14.3999 13.2799 16.0499C11.4799 17.6999 9.28819 18.5082 6.70486 18.4749H0.104858ZM3.90486 15.3249H6.52986C10.1965 15.3249 12.0299 13.4416 12.0299 9.67489C12.0299 7.95823 11.5715 6.60823 10.6549 5.62489C9.73819 4.62489 8.41319 4.12489 6.67986 4.12489H3.90486V15.3249Z" fill="black"/>
<path d="M21.849 18.4749V0.974892H35.074V4.12489H25.649V7.92489H32.774V11.0249H25.649V15.3249H35.074V18.4749H21.849Z" fill="black"/>
<path d="M39.7029 13.4749L43.2779 12.2749C43.4946 13.2916 43.9779 14.1416 44.7279 14.8249C45.4779 15.5082 46.4696 15.8499 47.7029 15.8499C48.8362 15.8499 49.6862 15.6499 50.2529 15.2499C50.8362 14.8499 51.1279 14.2999 51.1279 13.5999C51.1279 12.4499 50.1779 11.7332 48.2779 11.4499L46.1029 11.1499C42.4196 10.6332 40.5779 8.88323 40.5779 5.89989C40.5779 4.38323 41.1946 3.11656 42.4279 2.09989C43.6779 1.08323 45.3696 0.574892 47.5029 0.574892C49.5362 0.574892 51.1696 1.00823 52.4029 1.87489C53.6362 2.72489 54.4696 3.84989 54.9029 5.24989L51.4029 6.47489C50.7862 4.55823 49.4862 3.59989 47.5029 3.59989C46.5196 3.59989 45.7779 3.79989 45.2779 4.19989C44.7779 4.59989 44.5279 5.11656 44.5279 5.74989C44.5279 6.78323 45.2779 7.40823 46.7779 7.62489L48.9529 7.92489C50.9029 8.19156 52.4112 8.78323 53.4779 9.69989C54.5446 10.6166 55.0779 11.8332 55.0779 13.3499C55.0779 14.9666 54.4446 16.2916 53.1779 17.3249C51.9112 18.3582 50.0862 18.8749 47.7029 18.8749C45.4696 18.8749 43.6696 18.3749 42.3029 17.3749C40.9362 16.3749 40.0696 15.0749 39.7029 13.4749Z" fill="black"/>
<path d="M59.8922 9.69989C59.8588 7.13323 60.7088 4.96656 62.4422 3.19989C64.1922 1.41656 66.3755 0.541558 68.9922 0.574892C71.0088 0.574892 72.7338 1.07489 74.1672 2.07489C75.6172 3.05823 76.5838 4.35823 77.0672 5.97489L73.6422 7.29989C72.8088 4.91656 71.2422 3.72489 68.9422 3.72489C67.3588 3.72489 66.1172 4.24989 65.2172 5.29989C64.3172 6.34989 63.8672 7.81656 63.8672 9.69989C63.8672 11.5999 64.3088 13.0749 65.1922 14.1249C66.0922 15.1749 67.3422 15.6999 68.9422 15.6999C71.2755 15.6999 72.8755 14.4999 73.7422 12.0999L77.0922 13.4499C76.4422 15.1999 75.4255 16.5416 74.0422 17.4749C72.6755 18.4082 70.9755 18.8749 68.9422 18.8749C66.2422 18.8749 64.0588 18.0166 62.3922 16.2999C60.7255 14.5832 59.8922 12.3832 59.8922 9.69989Z" fill="black"/>
<path d="M82.5892 18.4749V0.974892H86.3892V18.4749H82.5892Z" fill="black"/>
<path d="M92.722 18.4749V14.5249H96.847V18.4749H92.722Z" fill="black"/>
<path d="M103.177 18.4749V0.974892H111.802C113.619 0.974892 115.01 1.34989 115.977 2.09989C116.944 2.83323 117.427 3.78323 117.427 4.94989C117.427 6.06656 117.01 6.94989 116.177 7.59989C115.344 8.23323 114.26 8.57489 112.927 8.62489V9.92489C114.444 9.95823 115.669 10.3082 116.602 10.9749C117.535 11.6249 118.002 12.5916 118.002 13.8749C118.002 15.2749 117.427 16.3916 116.277 17.2249C115.127 18.0582 113.56 18.4749 111.577 18.4749H103.177ZM106.977 7.89989H110.977C112.744 7.89989 113.627 7.26656 113.627 5.99989C113.627 5.33323 113.402 4.85823 112.952 4.57489C112.519 4.27489 111.86 4.12489 110.977 4.12489H106.977V7.89989ZM106.977 15.3249H111.027C113.06 15.3249 114.077 14.5999 114.077 13.1499C114.077 11.6832 113.06 10.9499 111.027 10.9499H106.977V15.3249Z" fill="black"/>
<path d="M123.896 18.4749V0.974892H137.121V4.12489H127.696V7.92489H134.821V11.0249H127.696V15.3249H137.121V18.4749H123.896Z" fill="black"/>
<path d="M143.15 18.4749V0.974892H151.8C153.65 0.974892 155.108 1.39156 156.175 2.22489C157.241 3.05823 157.775 4.17489 157.775 5.57489C157.775 6.72489 157.491 7.59156 156.925 8.17489C156.425 8.72489 155.825 9.09989 155.125 9.29989C154.441 9.49989 153.525 9.62489 152.375 9.67489V10.9749C154.008 11.0249 155.183 11.2666 155.9 11.6999C156.616 12.1332 157.1 12.9916 157.35 14.2749L158.075 18.4749H154.025L153.5 14.5999C153.35 13.5832 153.025 12.8666 152.525 12.4499C152.025 12.0332 151.225 11.8249 150.125 11.8249H146.95V18.4749H143.15ZM146.95 8.74989H151.075C151.925 8.74989 152.591 8.54989 153.075 8.14989C153.575 7.74989 153.825 7.17489 153.825 6.42489C153.825 5.69156 153.575 5.12489 153.075 4.72489C152.591 4.32489 151.925 4.12489 151.075 4.12489H146.95V8.74989Z" fill="black"/>
<path d="M164.039 18.4749V0.974892H167.839V15.2499H177.264V18.4749H164.039Z" fill="black"/>
<path d="M182.366 18.4749V0.974892H186.166V18.4749H182.366Z" fill="black"/>
<path d="M193.123 18.4749V0.974892H198.973L206.748 13.9749L207.873 13.1999C207.19 12.0499 206.748 11.1666 206.548 10.5499C206.365 9.91656 206.265 8.92489 206.248 7.57489V0.974892H210.048V18.4749H205.473L196.398 3.27489L195.248 3.99989C195.865 5.14989 196.298 6.13322 196.548 6.94989C196.798 7.76656 196.923 8.82489 196.923 10.1249V18.4749H193.123Z" fill="black"/>
</svg>
