<svg width="225" height="37" viewBox="0 0 225 37" fill="none" xmlns="http://www.w3.org/2000/svg">
<path d="M12.2127 36.2884L0 1.31952H6.33164L15.6868 29.3465L25.0776 1.31952H31.3618L19.149 36.2884H12.2127Z" fill="#222222"/>
<path d="M34.6828 6.56389C33.3193 5.16137 33.3193 3.06346 34.6828 1.71986C36.0345 0.317337 38.2518 0.317337 39.6035 1.71986C40.9552 3.06346 40.9552 5.17315 39.5561 6.56389C38.2043 7.9075 36.0939 7.9075 34.6828 6.56389ZM34.4339 36.2881V11.3018H39.8643V36.2881H34.4339Z" fill="#222222"/>
<path d="M49.8577 36.2883V16.5115H44.3086V11.3139H49.8577V4.31299H55.2882V11.3021H60.6002V16.4996H55.2882V36.2883H49.8577Z" fill="#222222"/>
<path d="M85.0726 11.314H90.5032V36.3003H85.0726V32.7056C83.0095 35.5577 80.0928 36.9485 76.2748 36.9485C72.8125 36.9485 69.8957 35.6992 67.4294 33.1534C64.9632 30.6077 63.7656 27.4608 63.7656 23.8071C63.7656 20.1063 64.9751 17.0067 67.4294 14.4609C69.8957 11.9151 72.8125 10.6658 76.2748 10.6658C80.0928 10.6658 83.0095 12.0683 85.0726 14.8616V11.314ZM77.1284 31.798C79.3931 31.798 81.3021 31.0438 82.8079 29.5469C84.3139 28.0029 85.0726 26.1054 85.0726 23.7954C85.0726 21.4854 84.3139 19.5996 82.8079 18.1027C81.3021 16.5588 79.3931 15.8045 77.1284 15.8045C74.8638 15.8045 72.9548 16.5588 71.4489 18.1027C69.9431 19.5996 69.1843 21.4971 69.1843 23.7954C69.1843 26.0936 69.9431 27.9912 71.4489 29.5469C72.9548 31.0438 74.8756 31.798 77.1284 31.798Z" fill="#222222"/>
<path d="M110.58 1.31958C115.405 1.31958 119.425 3.01675 122.591 6.36397C125.804 9.71118 127.416 13.8598 127.416 18.8099C127.416 23.7011 125.804 27.8498 122.591 31.2559C119.425 34.6031 115.405 36.3003 110.58 36.3003H96.7539V1.31958H110.58ZM110.58 30.7962C113.9 30.7962 116.614 29.653 118.678 27.4019C120.789 25.1508 121.843 22.2514 121.843 18.8099C121.843 15.3095 120.789 12.4691 118.678 10.218C116.614 7.96686 113.9 6.82363 110.58 6.82363H102.54V30.8081H110.58V30.7962Z" fill="#222222"/>
<path d="M149.93 23.8543L144.357 8.06115L138.773 23.8543L136.864 29.2405L134.398 36.2885H128.113L140.884 1.31958H147.82L160.542 36.2885H154.306L151.839 29.2405" fill="#222222"/>
<path d="M179.492 36.9363C174.417 36.9363 170.09 35.192 166.521 31.6915C162.999 28.1439 161.244 23.8421 161.244 18.7977C161.244 13.7533 162.999 9.45144 166.521 5.96279C170.09 2.41522 174.417 0.670898 179.492 0.670898C184.568 0.670898 188.895 2.41522 192.405 5.96279C195.974 9.46322 197.728 13.7533 197.728 18.7977C197.728 23.8421 195.974 28.1439 192.405 31.6915C188.895 35.192 184.568 36.9363 179.492 36.9363ZM179.492 31.3497C183.014 31.3497 185.979 30.1476 188.338 27.8021C190.745 25.4096 191.954 22.4042 191.954 18.8095C191.954 15.2148 190.745 12.2094 188.338 9.86395C185.979 7.4714 183.014 6.26923 179.492 6.26923C175.971 6.26923 173.006 7.4714 170.599 9.86395C168.241 12.2094 167.031 15.2148 167.031 18.8095C167.031 22.4042 168.241 25.4096 170.599 27.8021C173.006 30.1476 175.971 31.3497 179.492 31.3497Z" fill="#222222"/>
<path d="M205.054 1.1544L205.28 1.30762C209.358 4.17161 214.813 4.17161 218.88 1.28405C222.247 -1.09672 226.516 2.73372 224.464 6.30487L217.469 18.4798C215.062 22.6755 208.98 22.6755 206.56 18.4798L199.494 6.17522C197.442 2.62765 201.687 -1.21457 205.054 1.1544Z" fill="#222222"/>
</svg>
