<svg width="225" height="50" viewBox="0 0 225 50" fill="none" xmlns="http://www.w3.org/2000/svg">
<path d="M67.9727 39.47V10.4968H73.9727V34.9234H88.2227V39.47H67.9727Z" fill="#222222"/>
<path d="M110.047 32.7988C110.047 34.448 110.482 34.8344 112.297 34.8344V39.4701H110.25C107.017 39.4701 105.097 38.3855 105 34.879C103.732 37.8506 101.115 39.7301 97.1773 39.7301C93.1198 39.7301 90.3223 37.6054 90.3223 33.7869C90.3223 30.4587 92.4148 28.3786 96.6523 27.3014C102.652 25.8156 104.61 25.8156 104.61 23.5868C104.61 22.2942 103.342 21.5587 101.115 21.5587C98.1148 21.5587 96.6148 22.6805 96.6148 25.1915H91.1998C91.1998 20.2586 95.1298 17.3613 100.987 17.3613C106.845 17.3613 109.987 19.9095 109.987 24.716L110.047 32.7988ZM104.587 30.3324L104.542 28.7797C102.946 29.3622 101.312 29.8387 99.6523 30.2061C97.0273 30.8524 95.9773 31.8925 95.9773 33.3634C95.9773 34.8344 97.1548 35.7036 98.8198 35.7036C100.785 35.7036 103.71 34.5298 104.587 30.3324Z" fill="#222222"/>
<path d="M138.532 28.6013C138.532 35.3989 134.602 39.9008 129.052 39.9008C125.167 39.9008 122.932 37.479 121.71 34.448L121.102 39.47H116.122V10.4968H121.972V22.1381C123.195 19.4562 125.43 17.3835 129.052 17.3835C134.602 17.3984 138.532 21.8929 138.532 28.6013ZM132.532 28.6013C132.532 24.4039 130.395 21.9152 127.462 21.9152C124.53 21.9152 121.957 24.3817 121.957 28.6013C121.957 32.821 124.552 35.3692 127.5 35.3692C130.447 35.3692 132.547 32.8433 132.547 28.6013H132.532Z" fill="#222222"/>
<path d="M143.91 39.47V10.4968H152.513C161.775 10.4968 167.018 15.6526 167.018 24.7382C167.018 33.8239 161.768 39.4997 152.513 39.4997L143.91 39.47ZM146.91 36.9961H151.89C159.758 36.9961 163.995 32.8879 163.995 24.7085C163.995 16.5292 159.758 12.9335 151.89 12.9335H146.91V36.9961Z" fill="#222222"/>
<path d="M192.668 39.47L189.308 30.4215H176.288L172.92 39.47H169.86L180.825 10.4968H184.763L195.728 39.47H192.668ZM182.798 12.8518L177.203 27.9401H188.385L182.798 12.8518Z" fill="#222222"/>
<path d="M198.57 24.9687C198.57 16.0093 203.82 10.0364 211.808 10.0364C219.795 10.0364 225 15.9796 225 24.9687C225 33.9578 219.75 39.901 211.808 39.901C203.865 39.901 198.57 33.9281 198.57 24.9687ZM221.94 24.9687C221.94 17.5397 217.875 12.592 211.808 12.592C205.74 12.592 201.623 17.5397 201.623 24.9687C201.623 32.3977 205.688 37.3454 211.808 37.3454C217.928 37.3454 221.94 32.3977 221.94 24.9687Z" fill="#222222"/>
<path d="M7.29 32.1898C11.3162 32.1898 14.58 28.9569 14.58 24.9688C14.58 20.9808 11.3162 17.7478 7.29 17.7478C3.26385 17.7478 0 20.9808 0 24.9688C0 28.9569 3.26385 32.1898 7.29 32.1898Z" fill="#222222"/>
<path d="M24.7802 14.8653C28.8064 14.8653 32.0702 11.6324 32.0702 7.64434C32.0702 3.65629 28.8064 0.42334 24.7802 0.42334C20.7541 0.42334 17.4902 3.65629 17.4902 7.64434C17.4902 11.6324 20.7541 14.8653 24.7802 14.8653Z" fill="#222222"/>
<path d="M24.7802 32.1898C28.8064 32.1898 32.0702 28.9569 32.0702 24.9688C32.0702 20.9808 28.8064 17.7478 24.7802 17.7478C20.7541 17.7478 17.4902 20.9808 17.4902 24.9688C17.4902 28.9569 20.7541 32.1898 24.7802 32.1898Z" fill="#222222"/>
<path d="M24.7802 49.5143C28.8064 49.5143 32.0702 46.2813 32.0702 42.2933C32.0702 38.3052 28.8064 35.0723 24.7802 35.0723C20.7541 35.0723 17.4902 38.3052 17.4902 42.2933C17.4902 46.2813 20.7541 49.5143 24.7802 49.5143Z" fill="#222222"/>
<path d="M42.2705 32.1898C46.2966 32.1898 49.5605 28.9569 49.5605 24.9688C49.5605 20.9808 46.2966 17.7478 42.2705 17.7478C38.2443 17.7478 34.9805 20.9808 34.9805 24.9688C34.9805 28.9569 38.2443 32.1898 42.2705 32.1898Z" fill="#222222"/>
<path d="M35.0253 41.4909C34.9041 42.5878 35.0349 43.6976 35.4078 44.7373C35.5066 44.9935 35.6618 45.2246 35.8621 45.4137C36.0625 45.6029 36.3029 45.7453 36.5659 45.8308C36.8289 45.9162 37.1079 45.9424 37.3824 45.9074C37.6569 45.8725 37.9201 45.7773 38.1528 45.6288C41.1623 43.7146 43.7203 41.1808 45.6528 38.1998C45.8027 37.9693 45.8988 37.7086 45.9341 37.4367C45.9693 37.1648 45.9429 36.8885 45.8567 36.628C45.7704 36.3674 45.6266 36.1293 45.4357 35.9308C45.2447 35.7323 45.0114 35.5786 44.7528 35.4808C43.7165 35.1131 42.6096 34.9824 41.5151 35.0984C40.4205 35.2145 39.3666 35.5744 38.4324 36.151C37.4981 36.7277 36.7077 37.5063 36.1203 38.4285C35.5328 39.3506 35.1636 40.3925 35.0403 41.476L35.0253 41.4909Z" fill="#222222"/>
<path d="M8.10017 35.1169C6.9928 34.9965 5.8723 35.126 4.82267 35.4957C4.56436 35.5939 4.33131 35.7477 4.14033 35.946C3.94935 36.1442 3.80525 36.3821 3.71841 36.6422C3.63157 36.9024 3.60417 37.1785 3.63821 37.4504C3.67224 37.7224 3.76681 37.9835 3.91516 38.2148C5.84842 41.1952 8.40627 43.7288 11.4152 45.6438C11.6478 45.7923 11.911 45.8875 12.1856 45.9224C12.4601 45.9573 12.739 45.9311 13.002 45.8457C13.2651 45.7603 13.5055 45.6178 13.7059 45.4286C13.9062 45.2395 14.0614 45.0084 14.1602 44.7523C14.5383 43.7237 14.6757 42.6235 14.5619 41.5346C14.4481 40.4457 14.0861 39.3966 13.5032 38.4666C12.9203 37.5365 12.1318 36.7498 11.1972 36.1656C10.2625 35.5815 9.20609 35.2153 8.10768 35.0946L8.10017 35.1169Z" fill="#222222"/>
<path d="M14.5359 8.44649C14.6571 7.3496 14.5263 6.23976 14.1534 5.20001C14.0546 4.94389 13.8994 4.71279 13.6991 4.52363C13.4987 4.33447 13.2583 4.192 12.9953 4.10659C12.7322 4.02117 12.4533 3.99498 12.1787 4.02991C11.9042 4.06484 11.641 4.16003 11.4084 4.30852C8.39948 6.22349 5.84163 8.75713 3.90836 11.7375C3.76002 11.9689 3.6654 12.2299 3.63137 12.5019C3.59734 12.7738 3.62473 13.0499 3.71157 13.3101C3.79841 13.5703 3.94252 13.8081 4.13349 14.0064C4.32447 14.2046 4.55753 14.3584 4.81584 14.4565C5.85428 14.8311 6.96504 14.9672 8.06431 14.8544C9.16359 14.7417 10.2227 14.3831 11.1616 13.8058C12.1006 13.2284 12.8948 12.4474 13.4846 11.5216C14.0743 10.5958 14.444 9.54938 14.5658 8.46136L14.5359 8.44649Z" fill="#222222"/>
<path d="M41.4603 14.8209C42.5677 14.941 43.6881 14.8114 44.7378 14.442C44.9964 14.3442 45.2296 14.1904 45.4206 13.992C45.6116 13.7935 45.7554 13.5553 45.8417 13.2948C45.9279 13.0343 45.9543 12.758 45.9191 12.4861C45.8838 12.2141 45.7877 11.9534 45.6378 11.7229C43.7038 8.74312 41.1461 6.20963 38.1378 4.29393C37.8933 4.14377 37.6174 4.05089 37.3311 4.02235C37.0449 3.99381 36.7559 4.03039 36.4861 4.12927C36.2162 4.22815 35.9728 4.38672 35.7742 4.59293C35.5757 4.79913 35.4272 5.04751 35.3403 5.31914C34.9918 6.34119 34.879 7.42759 35.01 8.49851C35.141 9.56943 35.5127 10.5977 36.0976 11.5077C36.6824 12.4176 37.4657 13.1863 38.3898 13.757C39.3139 14.3278 40.3554 14.6863 41.4378 14.806L41.4603 14.8209Z" fill="#222222"/>
</svg>
