<svg width="224" height="70" viewBox="0 0 224 70" fill="none" xmlns="http://www.w3.org/2000/svg">
<path d="M45.4869 32.9464C45.4867 32.6701 45.4323 32.3968 45.3267 32.142C45.2212 31.8871 45.0668 31.6557 44.8722 31.4612L37.3799 23.8945C37.3023 23.8116 37.2068 23.7479 37.1005 23.7084C36.9944 23.669 36.8806 23.6551 36.7683 23.6676C36.6558 23.68 36.5478 23.7186 36.4527 23.7804C36.3576 23.8421 36.2779 23.9251 36.2201 24.0232C35.733 24.7482 35.2227 25.485 34.6776 26.2218C34.5702 26.3645 34.518 26.5419 34.5308 26.7205C34.5437 26.8992 34.6206 27.067 34.7472 27.1926L39.9547 32.4436C40.0811 32.5801 40.1514 32.7597 40.1514 32.9464C40.1514 33.1331 40.0811 33.3129 39.9547 33.4494L33.1699 40.2792C31.2014 37.4551 28.9342 34.8552 26.4083 32.5255C29.4006 29.707 36.3129 22.2924 36.3129 14.1177C36.2096 10.5533 34.7328 7.16995 32.1961 4.68561C29.6593 2.20126 26.2622 0.811523 22.7259 0.811523C19.1896 0.811523 15.7926 2.20126 13.2558 4.68561C10.719 7.16995 9.24226 10.5533 9.13896 14.1177C9.13896 22.3041 16.0977 29.7187 19.0436 32.5255C16.5279 34.8422 14.2721 37.4308 12.3168 40.2441L5.54357 33.4026C5.47693 33.3371 5.424 33.2591 5.38783 33.1727C5.35167 33.0864 5.33304 32.9935 5.33304 32.8997C5.33304 32.806 5.35167 32.7132 5.38783 32.6268C5.424 32.5404 5.47693 32.4622 5.54357 32.3968L10.7511 27.1458C10.8747 27.0208 10.9496 26.8554 10.9624 26.6794C10.9752 26.5034 10.9249 26.3286 10.8207 26.1868C10.2756 25.4617 9.76525 24.7133 9.27814 23.9765C9.21635 23.8853 9.13557 23.8087 9.04143 23.7521C8.94729 23.6956 8.842 23.6604 8.733 23.649C8.62499 23.6359 8.51548 23.6481 8.4129 23.6846C8.3103 23.7211 8.21747 23.781 8.14157 23.8595L0.649273 31.4262C0.454285 31.618 0.299341 31.8471 0.193538 32.1001C0.0877356 32.3532 0.0332031 32.6251 0.0332031 32.8997C0.0332031 33.1744 0.0877356 33.4462 0.193538 33.6993C0.299341 33.9524 0.454285 34.1816 0.649273 34.3733L10.1132 43.928C8.48779 46.894 7.59657 50.2119 7.51523 53.5997C7.459 55.6557 7.81209 57.7023 8.55355 59.6185C9.295 61.5346 10.4098 63.2814 11.8321 64.7557C13.2544 66.23 14.9553 67.4017 16.8344 68.2019C18.7135 69.002 20.7326 69.4144 22.7723 69.4144C24.8121 69.4144 26.8312 69.002 28.7103 68.2019C30.5892 67.4017 32.2902 66.23 33.7126 64.7557C35.1348 63.2814 36.2497 61.5346 36.9912 59.6185C37.7326 57.7023 38.0857 55.6557 38.0294 53.5997C37.9415 50.2292 37.0547 46.9289 35.4431 43.9748L44.907 34.4199C45.2844 34.0244 45.4926 33.4952 45.4869 32.9464ZM22.7433 30.4438C20.822 28.7445 19.0738 26.8561 17.5243 24.8068C16.3295 23.2536 15.3102 21.5708 14.4856 19.7896C13.6522 18.014 13.1979 16.0816 13.1519 14.1177C13.2384 11.6123 14.2861 9.23866 16.0743 7.49713C17.8625 5.75559 20.2514 4.78226 22.7375 4.78226C25.2236 4.78226 27.6126 5.75559 29.4008 7.49713C31.1891 9.23866 32.2368 11.6123 32.3232 14.1177C32.2772 16.0816 31.8228 18.014 30.9895 19.7896C30.165 21.572 29.1499 23.2583 27.9624 24.8185C26.4074 26.8595 24.6594 28.7435 22.7433 30.4438ZM23.2305 50.3251C23.1666 50.392 23.0901 50.4452 23.0053 50.4815C22.9207 50.5179 22.8295 50.5365 22.7375 50.5365C22.6455 50.5365 22.5544 50.5179 22.4697 50.4815C22.3851 50.4452 22.3084 50.392 22.2446 50.3251L15.4366 43.4718C17.5043 40.3889 19.9604 37.5898 22.7433 35.145C25.519 37.5894 27.9709 40.3842 30.0384 43.4602L23.2305 50.3251ZM33.6686 53.6582C33.7162 55.1298 33.4699 56.5958 32.9444 57.9694C32.4188 59.343 31.6247 60.5961 30.6093 61.6539C29.5939 62.7118 28.3779 63.553 27.0335 64.1275C25.6892 64.702 24.244 64.998 22.7839 64.998C21.3239 64.998 19.8788 64.702 18.5345 64.1275C17.1901 63.553 15.9741 62.7118 14.9586 61.6539C13.9432 60.5961 13.1491 59.343 12.6234 57.9694C12.0978 56.5958 11.8516 55.1298 11.8993 53.6582C11.9487 51.4526 12.4544 49.2816 13.3838 47.2843L21.3168 55.2838C21.7095 55.6738 22.2386 55.8923 22.7897 55.8923C23.341 55.8923 23.87 55.6738 24.2627 55.2838L32.1841 47.2843C33.0986 49.2807 33.5885 51.4478 33.6222 53.6465L33.6686 53.6582Z" fill="#222222"/>
<path d="M86.7294 32.3854V45.8697H80.6753V33.4497C80.6999 32.5637 80.6298 31.6775 80.4665 30.8066C80.3487 30.2411 80.0661 29.7238 79.6547 29.3214C79.3229 28.9947 78.9281 28.7399 78.4949 28.5729C78.0669 28.4209 77.6147 28.3495 77.1611 28.3625C76.609 28.339 76.0586 28.4391 75.5492 28.6553C75.04 28.8717 74.5844 29.1989 74.2154 29.6137C73.3374 30.9051 72.9278 32.4623 73.0556 34.0227V45.858H67.0477V33.4497C67.0754 32.5365 67.0055 31.6229 66.839 30.7249C66.7016 30.1449 66.3897 29.6219 65.9459 29.2278C65.6152 28.9136 65.2189 28.6779 64.7861 28.5379C64.3147 28.4051 63.8257 28.3459 63.3364 28.3625C62.8352 28.3454 62.3366 28.4417 61.8771 28.644C61.4176 28.8463 61.0088 29.1497 60.6805 29.532C59.7714 30.8883 59.3611 32.5223 59.5207 34.1514V45.8463H53.5361V24.2458H59.5207V27.2631C59.8835 26.4578 60.4275 25.7489 61.1096 25.1931C62.3202 24.2944 63.7688 23.7801 65.2706 23.7154C66.7725 23.6509 68.2594 24.0391 69.5414 24.8305C70.6102 25.5924 71.3974 26.6908 71.7797 27.9532C72.2373 26.8823 72.9554 25.945 73.8673 25.2281C75.3294 24.1679 77.1015 23.6326 78.9008 23.7079C79.9662 23.6347 81.0347 23.7918 82.0349 24.1691C83.035 24.5462 83.9436 25.1347 84.6998 25.8949C86.1666 27.7214 86.8919 30.0408 86.7294 32.3854Z" fill="#222222"/>
<path d="M89.3277 35.0637C89.2657 33.5636 89.5026 32.0661 90.0245 30.66C90.5464 29.2538 91.3427 27.9676 92.3664 26.8773C94.5823 24.8293 97.479 23.6931 100.485 23.6931C103.491 23.6931 106.388 24.8293 108.603 26.8773C109.623 27.9701 110.416 29.2571 110.935 30.6628C111.455 32.0685 111.692 33.5647 111.631 35.0637C111.696 36.5652 111.46 38.0646 110.936 39.4715C110.412 40.8786 109.611 42.1638 108.58 43.2502C107.525 44.2985 106.267 45.116 104.884 45.6513C103.501 46.1865 102.023 46.4281 100.543 46.361C99.0445 46.4478 97.5442 46.2249 96.1341 45.7061C94.7241 45.1872 93.4342 44.3833 92.3433 43.3437C91.3162 42.2376 90.5199 40.9348 90.0019 39.5125C89.484 38.09 89.2547 36.5772 89.3277 35.0637ZM104.069 40.4902C104.928 38.8197 105.301 36.9389 105.147 35.0637C105.147 32.5025 104.788 30.7015 104.057 29.649C103.645 29.0991 103.101 28.6643 102.476 28.3859C101.851 28.1076 101.165 27.995 100.485 28.0585C99.7986 27.9979 99.1081 28.1131 98.4777 28.3931C97.8471 28.6732 97.2969 29.1091 96.878 29.6607C95.9864 31.3126 95.5839 33.1879 95.7182 35.0637C95.7182 37.6249 96.0778 39.4376 96.8085 40.4902C97.2325 41.0376 97.7859 41.4689 98.4181 41.7448C99.0503 42.0206 99.741 42.132 100.427 42.069C101.12 42.1413 101.819 42.0318 102.457 41.751C103.095 41.4703 103.65 41.0279 104.069 40.4668V40.4902Z" fill="#222222"/>
<path d="M114.311 15.6147H120.295V45.8695H114.311V15.6147Z" fill="#222222"/>
<path d="M146.447 35.0636C146.379 33.5707 146.605 32.0789 147.111 30.674C147.615 29.2691 148.391 27.9788 149.393 26.8772C150.452 25.8098 151.723 24.9798 153.122 24.4417C154.521 23.9036 156.017 23.6695 157.512 23.7546C159.897 23.6344 162.25 24.3629 164.157 25.8129C166.083 27.5323 167.268 29.9401 167.463 32.5258H161.664C161.533 31.3389 161.075 30.2128 160.342 29.2747C159.986 28.8986 159.552 28.6069 159.071 28.4209C158.588 28.2348 158.072 28.1589 157.558 28.1987C156.888 28.1323 156.211 28.2479 155.599 28.5337C154.987 28.8196 154.463 29.2651 154.079 29.8244C153.295 31.4393 152.952 33.2353 153.081 35.0285C152.95 36.8319 153.29 38.6381 154.067 40.2678C154.456 40.8209 154.981 41.2605 155.592 41.542C156.204 41.8234 156.879 41.9366 157.547 41.87C159.712 41.87 161.08 40.6265 161.652 38.1394H167.451C167.379 39.3269 167.058 40.4854 166.508 41.5379C165.959 42.5906 165.192 43.5129 164.262 44.2441C162.313 45.7061 159.927 46.4493 157.5 46.3493C156.017 46.4377 154.531 46.2185 153.135 45.7057C151.738 45.1928 150.461 44.3968 149.382 43.367C148.373 42.2471 147.594 40.9367 147.09 39.5115C146.587 38.0863 146.369 36.5746 146.447 35.0636Z" fill="#222222"/>
<path d="M189.475 24.269V45.8695H183.676V42.8054C183.131 43.9313 182.265 44.8671 181.187 45.4923C180.111 46.1175 178.874 46.4036 177.634 46.3139C176.451 46.3405 175.272 46.1544 174.154 45.7642C173.158 45.3656 172.268 44.7366 171.556 43.9281C170.801 43.1343 170.276 42.1476 170.037 41.0746C169.729 39.6303 169.588 38.1545 169.62 36.6773V24.187H175.743V36.3732C175.719 37.2932 175.78 38.2134 175.929 39.1215C176.036 39.7028 176.296 40.2441 176.683 40.6885C176.998 41.0497 177.396 41.3268 177.842 41.4956C178.419 41.6617 179.017 41.7366 179.617 41.7177C180.176 41.7344 180.731 41.6107 181.231 41.3576C181.731 41.1044 182.16 40.7298 182.482 40.2675C183.28 38.9743 183.653 37.4602 183.549 35.9405V24.2456L189.475 24.269Z" fill="#222222"/>
<path d="M193.406 15.6147H199.391V45.8695H193.406V15.6147Z" fill="#222222"/>
<path d="M217.532 39.1327C217.312 39.9561 216.846 40.6914 216.198 41.2379C215.158 41.8838 213.941 42.1818 212.723 42.0894C211.504 41.997 210.346 41.5188 209.413 40.7232C208.489 39.5712 208.033 38.1081 208.137 36.63H223.841C223.926 32.2795 222.948 28.9933 220.907 26.7713C219.885 25.7412 218.66 24.9385 217.311 24.4148C215.964 23.8911 214.521 23.6579 213.078 23.7305C211.653 23.6592 210.227 23.8772 208.887 24.3714C207.546 24.8655 206.316 25.6259 205.273 26.6076C203.231 28.5723 202.222 31.379 202.222 35.0278C202.132 36.5833 202.36 38.141 202.894 39.6037C203.426 41.0663 204.252 42.403 205.319 43.53C206.359 44.5168 207.588 45.2799 208.929 45.7725C210.271 46.2651 211.699 46.4769 213.124 46.3953C215.522 46.5004 217.894 45.8638 219.921 44.5708C221.736 43.272 223.006 41.3371 223.481 39.1444H217.532V39.1327ZM209.251 29.543C210.191 28.5775 211.458 28.0041 212.799 27.9369C214.139 27.8697 215.457 28.3136 216.488 29.1803C217.249 30.1101 217.692 31.2626 217.752 32.4667H208.184C208.261 31.4108 208.631 30.398 209.251 29.543Z" fill="#222222"/>
<path d="M137.957 39.1335C137.738 39.957 137.272 40.6922 136.624 41.2387C135.585 41.8818 134.37 42.1783 133.155 42.0859C131.938 41.9935 130.782 41.517 129.851 40.724C128.926 39.5719 128.47 38.1089 128.575 36.6308H144.267C144.351 32.2803 143.374 28.9942 141.332 26.7721C140.312 25.743 139.089 24.9407 137.743 24.417C136.396 23.8933 134.957 23.6596 133.515 23.7313C132.088 23.6598 130.66 23.8774 129.318 24.3715C127.975 24.8657 126.745 25.6264 125.698 26.6083C123.672 28.573 122.656 31.3798 122.648 35.0286C122.558 36.5842 122.786 38.1418 123.32 39.6045C123.852 41.0672 124.678 42.4037 125.745 43.5308C126.785 44.5171 128.013 45.2798 129.355 45.7723C130.697 46.2649 132.125 46.477 133.55 46.3961C135.951 46.5013 138.326 45.8649 140.358 44.5717C142.166 43.2684 143.432 41.3347 143.907 39.1452H137.957V39.1335ZM129.677 29.5438C130.619 28.5773 131.888 28.0037 133.23 27.9366C134.573 27.8695 135.892 28.3136 136.925 29.1812C137.678 30.1149 138.116 31.2658 138.178 32.4675H128.61C128.693 31.4128 129.062 30.4014 129.677 29.5438Z" fill="#222222"/>
</svg>
