<svg width="226" height="50" viewBox="0 0 226 50" fill="none" xmlns="http://www.w3.org/2000/svg">
<path d="M67.4922 39.9866V9.38818H79.9391C83.0503 9.38818 85.5691 10.2772 87.4216 11.9812C89.2734 13.6853 90.1628 15.9079 90.1628 18.7232C90.1628 21.5386 89.2734 23.7612 87.4216 25.4653C85.5691 27.1693 83.0503 28.0584 79.8647 28.0584H71.8634V39.9866H67.4922ZM71.8634 24.2058H79.0497C81.1241 24.2058 82.6797 23.6872 83.7909 22.6499C84.9028 21.6127 85.4209 20.2791 85.4209 18.6492C85.4209 17.0192 84.9028 15.7597 83.7909 14.7966C82.6797 13.8334 81.1241 13.3889 79.0497 13.3889H71.8634V24.2058Z" fill="#222222"/>
<path d="M92.5342 34.3556L96.4604 33.0961C97.2017 35.8374 99.0536 37.171 102.165 37.171C105.277 37.171 106.833 36.1337 106.833 34.1334C106.833 32.5034 105.499 31.4662 102.906 30.9475L100.313 30.503C98.0904 30.0585 96.3867 29.3176 95.2011 28.4285C94.0161 27.5395 93.4973 26.1318 93.4973 24.2796C93.4973 22.3533 94.3123 20.7975 95.8679 19.538C97.4236 18.2785 99.3498 17.6858 101.647 17.6858C104.017 17.6858 105.944 18.2044 107.425 19.1675C108.907 20.1307 109.944 21.5384 110.463 23.1683L106.833 24.576C105.944 22.131 104.24 20.8715 101.573 20.8715C100.239 20.8715 99.2017 21.1679 98.4611 21.7606C97.7204 22.3533 97.3498 23.0201 97.3498 23.8351C97.3498 24.576 97.5723 25.1687 98.0904 25.6132C98.6092 26.0577 99.5723 26.3541 101.054 26.6504L103.647 27.169C105.499 27.5395 107.204 28.2063 108.685 29.2435C110.167 30.2067 110.982 31.7625 110.982 33.9111C110.982 35.9855 110.167 37.6155 108.611 38.8009C107.055 39.9863 104.832 40.579 102.091 40.579C99.7204 40.579 97.6461 40.0604 95.8679 38.949C94.0898 37.8377 92.9786 36.2819 92.5342 34.3556Z" fill="#222222"/>
<path d="M129.501 18.2786H133.799L125.353 43.024C124.612 45.0984 123.723 46.5803 122.76 47.3211C121.797 48.062 120.389 48.5065 118.463 48.5065H113.943V44.8021H118.315C119.13 44.8021 119.796 44.6539 120.241 44.3576C120.685 44.0613 121.056 43.5426 121.278 42.8018L122.39 39.7641L112.832 18.2786H117.426L121.945 29.0213C122.611 30.6513 123.056 32.7998 123.056 35.6152H124.908C124.908 33.3926 125.279 31.3181 125.798 29.5399L129.501 18.2786Z" fill="#222222"/>
<path d="M138.467 39.9866V9.38818H149.209C153.58 9.38818 157.136 10.7959 159.877 13.6112C162.619 16.4266 163.952 20.0569 163.952 24.5762C163.952 29.3919 162.619 33.0964 159.877 35.9117C157.211 38.653 153.506 40.0607 148.912 40.0607H138.467V39.9866ZM142.837 35.9858H148.32C155.729 35.9858 159.359 32.2073 159.359 24.6503C159.359 21.1682 158.47 18.4269 156.617 16.4266C154.766 14.4262 152.099 13.463 148.616 13.463H142.837V35.9858Z" fill="#222222"/>
<path d="M188.92 39.9866L186.105 31.9109H172.621L169.732 39.9866H164.99L176.474 9.38818H182.475L193.736 39.9866H188.92ZM174.103 27.9102H184.697L181.734 19.5382C180.845 16.797 180.4 14.4262 180.326 12.4258H178.474C178.326 14.7966 177.881 17.1674 177.066 19.5382L174.103 27.9102Z" fill="#222222"/>
<path d="M194.329 24.6501C194.255 19.9825 195.736 16.204 198.7 13.1665C201.664 10.1288 205.368 8.64709 209.739 8.72115C214.11 8.64709 217.74 10.1288 220.704 13.1665C223.667 16.204 225.075 19.9825 225.001 24.6501C225.075 29.3176 223.593 33.0961 220.704 36.1338C217.814 39.1714 214.11 40.6531 209.739 40.579C205.368 40.6531 201.664 39.1714 198.7 36.1338C195.736 33.1702 194.329 29.3176 194.329 24.6501ZM220.408 24.6501C220.408 21.168 219.444 18.3526 217.518 16.0559C215.592 13.8332 212.999 12.7219 209.739 12.7219C206.479 12.7219 203.886 13.8332 201.96 16.0559C200.034 18.2785 199.071 21.168 199.071 24.6501C199.071 28.2063 200.034 31.0217 201.96 33.2443C203.886 35.467 206.479 36.5783 209.739 36.5783C212.999 36.5783 215.592 35.467 217.518 33.2443C219.444 31.0958 220.408 28.2063 220.408 24.6501Z" fill="#222222"/>
<path d="M38.9694 10.4252L38.8212 10.3512L38.7471 10.203C36.3764 4.27592 30.7458 0.42334 24.3744 0.42334C18.0029 0.42334 12.3724 4.27592 10.0016 10.203L9.92756 10.3512L9.77938 10.4252C3.85249 12.7961 0 18.4268 0 24.7983C0 31.1699 3.85249 36.8006 9.77938 39.1715L9.92756 39.2455L10.0016 39.3937C12.3724 45.3208 18.0029 49.1733 24.3744 49.1733C30.7458 49.1733 36.3764 45.3208 38.7471 39.3937L38.8212 39.2455L38.9694 39.1715C44.8963 36.8006 48.7487 31.1699 48.7487 24.7983C48.7487 18.4268 44.8963 12.7961 38.9694 10.4252ZM14.595 7.46171C17.0398 4.64636 20.596 3.01643 24.3744 3.01643C28.1528 3.01643 31.7089 4.64636 34.1538 7.46171C34.4501 7.83215 34.5242 8.27665 34.3019 8.64715C34.0797 9.01759 33.7092 9.3139 33.2647 9.3139C30.3013 9.3139 27.4119 10.1289 24.9671 11.6847C24.7448 11.8329 24.5966 11.8329 24.3744 11.8329C24.1521 11.8329 23.9299 11.7588 23.7817 11.6847C21.3369 10.1289 18.4475 9.3139 15.484 9.3139C15.0395 9.3139 14.595 9.09165 14.4468 8.64715C14.2246 8.20259 14.2986 7.75809 14.595 7.46171ZM11.6316 13.7592C11.7797 12.8702 12.4465 12.2033 13.3355 12.0552C14.0764 11.907 14.8173 11.907 15.484 11.907C18.4475 11.907 21.2627 12.8702 23.5594 14.7223C24.0039 15.0928 24.6707 15.0928 25.1893 14.7223C27.486 12.8702 30.2272 11.907 33.1906 11.907C33.9315 11.907 34.6724 11.9811 35.3391 12.0552C36.2282 12.2033 36.8949 12.8702 37.0431 13.7592C37.1913 14.5001 37.1913 15.241 37.1913 15.9078C37.1913 17.3155 36.9691 18.7231 36.5245 20.1308C36.3022 20.7235 35.7837 21.2421 35.191 21.4643C34.5242 21.6866 33.8574 21.5385 33.3388 21.168C30.6717 19.2417 27.5601 18.2786 24.3003 18.2786C21.0405 18.2786 17.9289 19.3158 15.2618 21.168C14.8913 21.4644 14.4468 21.5385 14.0764 21.5385C13.8541 21.5385 13.6319 21.5385 13.4096 21.4643C12.7428 21.2421 12.2983 20.7976 12.0761 20.1308C11.6316 18.7972 11.4093 17.3895 11.4093 15.9078C11.4093 15.1669 11.4834 14.426 11.6316 13.7592ZM32.6721 24.7983C32.6721 25.4652 32.3016 26.1319 31.783 26.5023C29.6345 28.0582 27.0415 28.7991 24.3744 28.7991C21.7073 28.7991 19.1883 27.9841 16.9657 26.5023C16.3731 26.1319 16.0767 25.4652 16.0767 24.7983C16.0767 24.1315 16.4471 23.4648 16.9657 23.0943C19.1143 21.5385 21.7073 20.7976 24.3744 20.7976C27.0415 20.7976 29.5604 21.6125 31.783 23.0943C32.3016 23.4648 32.6721 24.1315 32.6721 24.7983ZM8.89038 33.6889C8.89038 34.1335 8.66806 34.578 8.22356 34.7261C8.07537 34.8002 7.92725 34.8002 7.77906 34.8002C7.48269 34.8002 7.26044 34.7262 7.03819 34.5039C4.22292 32.059 2.59302 28.5027 2.59302 24.7243C2.59302 20.9458 4.22292 17.3895 7.03819 14.9446C7.40862 14.6483 7.85312 14.5742 8.22356 14.7965C8.66806 15.0187 8.89038 15.3892 8.89038 15.8337C8.89038 18.7972 9.70531 21.6125 11.2611 24.1315C11.4834 24.502 11.4834 24.9465 11.2611 25.317C9.70531 27.836 8.89038 30.7254 8.89038 33.6889ZM34.1538 42.135C31.7089 44.9503 28.1528 46.5803 24.3744 46.5803C20.596 46.5803 17.0398 44.9503 14.595 42.135C14.2986 41.7645 14.2246 41.32 14.4468 40.9495C14.6691 40.505 15.0395 40.2828 15.484 40.2828C18.4475 40.2828 21.3369 39.4678 23.7817 37.912C24.1521 37.6896 24.5966 37.6896 25.0411 37.912C27.486 39.4678 30.3754 40.2828 33.3388 40.2828C33.7833 40.2828 34.2279 40.505 34.376 40.9495C34.4501 41.32 34.4501 41.8386 34.1538 42.135ZM37.1172 35.8375C36.9691 36.7265 36.3022 37.3933 35.4132 37.5415C34.6724 37.6896 33.9315 37.6896 33.2647 37.6896C30.3013 37.6896 27.486 36.7265 25.1893 34.8743C24.7448 34.5039 24.0781 34.5039 23.6335 34.8743C21.3369 36.7265 18.5216 37.6896 15.5581 37.6896C14.8172 37.6896 14.0764 37.6156 13.4096 37.5415C12.5206 37.3933 11.8538 36.7265 11.7056 35.8375C11.5574 35.0966 11.5574 34.3557 11.5574 33.6889C11.5574 32.2812 11.7797 30.8736 12.2242 29.4659C12.4465 28.8732 12.9651 28.3546 13.5578 28.1323C14.2246 27.91 14.8913 28.0582 15.4099 28.4286C18.0771 30.355 21.1887 31.3181 24.4484 31.3181C27.7083 31.3181 30.8199 30.2808 33.487 28.4286C34.0056 28.0582 34.6724 27.91 35.3391 28.1323C36.0059 28.3546 36.4504 28.7991 36.6727 29.4659C37.1172 30.7995 37.3395 32.2071 37.3395 33.6889C37.2654 34.4298 37.2654 35.0966 37.1172 35.8375ZM41.7106 34.578C41.4883 34.7262 41.2661 34.8743 40.9697 34.8743C40.8215 34.8743 40.6734 34.8743 40.5252 34.8002C40.0807 34.578 39.8584 34.2075 39.8584 33.763C39.8584 30.7995 39.0434 27.9841 37.4876 25.4651C37.2654 25.0947 37.2654 24.6502 37.4876 24.2797C39.0434 21.8348 39.8584 18.9454 39.8584 15.9818C39.8584 15.5373 40.0807 15.0928 40.5252 14.9446C40.8956 14.7223 41.4142 14.7965 41.7106 15.0928C44.5258 17.5377 46.1557 21.0939 46.1557 24.8724C46.1557 28.5027 44.5258 32.059 41.7106 34.578Z" fill="#222222"/>
</svg>
